<svg width="74" height="75" viewBox="0 0 74 75" fill="none" xmlns="http://www.w3.org/2000/svg">
<path opacity="0.2" d="M69.3746 37.1247C69.3746 43.2578 66.9382 49.1397 62.6014 53.4765C58.2646 57.8133 52.3827 60.2497 46.2496 60.2497H20.8121C18.5168 60.2468 16.2484 59.7559 14.1573 58.8095C12.0662 57.863 10.2003 56.4827 8.68344 54.7602C7.16654 53.0376 6.03331 51.0121 5.35895 48.8181C4.68459 46.6241 4.48452 44.3118 4.77201 42.0346C5.0595 39.7574 5.82798 37.5674 7.02646 35.6099C8.22493 33.6523 9.826 31.9721 11.7234 30.6805C13.6208 29.389 15.7712 28.5157 18.0319 28.1187C20.2926 27.7217 22.6119 27.8099 24.8358 28.3776V28.4065C26.8594 23.4431 30.5444 19.3367 35.2606 16.7896C39.9769 14.2424 45.4315 13.4128 50.6918 14.4424C55.9521 15.4721 60.6914 18.2971 64.0992 22.4345C67.507 26.5718 69.3718 31.7645 69.3746 37.1247Z" fill="#1065DC"/>
<path d="M46.2501 11.6875C41.5259 11.6911 36.8959 13.0089 32.8778 15.4935C28.8597 17.978 25.612 21.5314 23.498 25.7562C20.983 25.3894 18.4195 25.5447 15.9672 26.2125C13.5149 26.8803 11.2266 28.0463 9.24484 29.6376C7.26312 31.229 5.63055 33.2116 4.44896 35.4618C3.26737 37.712 2.56211 40.1815 2.37717 42.7163C2.19223 45.2512 2.53157 47.7969 3.37404 50.1948C4.2165 52.5927 5.54402 54.7912 7.27377 56.6534C9.00353 58.5155 11.0984 60.0012 13.4278 61.0179C15.7572 62.0346 18.271 62.5604 20.8126 62.5625H46.2501C52.9965 62.5625 59.4667 59.8825 64.2371 55.112C69.0076 50.3416 71.6876 43.8714 71.6876 37.125C71.6876 30.3786 69.0076 23.9084 64.2371 19.138C59.4667 14.3675 52.9965 11.6875 46.2501 11.6875ZM46.2501 57.9375H20.8126C17.1327 57.9375 13.6035 56.4757 11.0015 53.8736C8.39941 51.2715 6.93759 47.7424 6.93759 44.0625C6.93759 40.3826 8.39941 36.8535 11.0015 34.2514C13.6035 31.6493 17.1327 30.1875 20.8126 30.1875C21.1306 30.1875 21.4485 30.1875 21.7636 30.2193C21.1312 32.4667 20.8112 34.7904 20.8126 37.125C20.8126 37.7383 21.0562 38.3265 21.4899 38.7602C21.9236 39.1939 22.5118 39.4375 23.1251 39.4375C23.7384 39.4375 24.3266 39.1939 24.7603 38.7602C25.194 38.3265 25.4376 37.7383 25.4376 37.125C25.4376 33.0087 26.6582 28.9848 28.9451 25.5622C31.232 22.1396 34.4825 19.472 38.2855 17.8968C42.0885 16.3215 46.2732 15.9094 50.3104 16.7124C54.3476 17.5155 58.0561 19.4977 60.9667 22.4083C63.8774 25.319 65.8596 29.0275 66.6627 33.0647C67.4657 37.1019 67.0536 41.2866 65.4783 45.0896C63.9031 48.8926 61.2355 52.1431 57.8129 54.43C54.3903 56.7169 50.3664 57.9375 46.2501 57.9375Z" fill="#1065DC"/>
</svg>
