<svg width="57" height="61" viewBox="0 0 57 61" fill="none" xmlns="http://www.w3.org/2000/svg">
<path d="M28.667 0.0625C13.1068 0.0625 0.916992 7.17344 0.916992 16.25V44C0.916992 53.0766 13.1068 60.1875 28.667 60.1875C44.2272 60.1875 56.417 53.0766 56.417 44V16.25C56.417 7.17344 44.2272 0.0625 28.667 0.0625ZM51.792 30.125C51.792 32.9058 49.5142 35.7415 45.5454 37.9066C41.0764 40.3434 35.0813 41.6875 28.667 41.6875C22.2527 41.6875 16.2575 40.3434 11.7886 37.9066C7.81981 35.7415 5.54199 32.9058 5.54199 30.125V25.315C10.4734 29.6509 18.9054 32.4375 28.667 32.4375C38.4286 32.4375 46.8606 29.6394 51.792 25.315V30.125ZM11.7886 8.46844C16.2575 6.03164 22.2527 4.6875 28.667 4.6875C35.0813 4.6875 41.0764 6.03164 45.5454 8.46844C49.5142 10.6335 51.792 13.4692 51.792 16.25C51.792 19.0308 49.5142 21.8665 45.5454 24.0316C41.0764 26.4684 35.0813 27.8125 28.667 27.8125C22.2527 27.8125 16.2575 26.4684 11.7886 24.0316C7.81981 21.8665 5.54199 19.0308 5.54199 16.25C5.54199 13.4692 7.81981 10.6335 11.7886 8.46844ZM45.5454 51.7816C41.0764 54.2184 35.0813 55.5625 28.667 55.5625C22.2527 55.5625 16.2575 54.2184 11.7886 51.7816C7.81981 49.6165 5.54199 46.7808 5.54199 44V39.19C10.4734 43.5259 18.9054 46.3125 28.667 46.3125C38.4286 46.3125 46.8606 43.5144 51.792 39.19V44C51.792 46.7808 49.5142 49.6165 45.5454 51.7816Z" fill="#1065DC"/>
</svg>
