<svg width="74" height="75" viewBox="0 0 74 75" fill="none" xmlns="http://www.w3.org/2000/svg">
<path d="M53.188 27.875C55.1294 26.4189 56.5635 24.3889 57.287 22.0726C58.0106 19.7562 57.987 17.2709 57.2196 14.9686C56.4522 12.6664 54.9799 10.664 53.0112 9.24501C51.0425 7.82606 48.6772 7.0625 46.2505 7.0625H25.438C23.0112 7.0625 20.646 7.82606 18.6773 9.24501C16.7086 10.664 15.2362 12.6664 14.4688 14.9686C13.7014 17.2709 13.6778 19.7562 14.4014 22.0726C15.125 24.3889 16.5591 26.4189 18.5005 27.875C17.0305 28.9766 15.8442 30.4126 15.0398 32.064C14.2353 33.7154 13.8359 35.5347 13.8746 37.3712C13.9133 39.2077 14.3891 41.0086 15.2624 42.6246C16.1357 44.2407 17.3814 45.6254 18.8965 46.6641C17.1732 47.9743 15.8129 49.7026 14.9442 51.6855C14.0756 53.6684 13.7275 55.8402 13.9328 57.9952C14.1381 60.1502 14.8901 62.2172 16.1175 64.0004C17.345 65.7835 19.0072 67.2239 20.9469 68.1851C22.8866 69.1463 25.0396 69.5965 27.2019 69.4931C29.3642 69.3897 31.4643 68.736 33.3034 67.5941C35.1425 66.4522 36.6597 64.8597 37.7114 62.9675C38.763 61.0753 39.3143 58.946 39.313 56.7812V46.375C40.5277 47.286 41.91 47.9489 43.3809 48.3258C44.8518 48.7026 46.3825 48.786 47.8857 48.5713C49.3888 48.3566 50.8349 47.8479 52.1415 47.0742C53.4481 46.3006 54.5894 45.2772 55.5005 44.0625C56.4115 42.8478 57.0744 41.4655 57.4512 39.9946C57.8281 38.5237 57.9115 36.993 57.6968 35.4898C57.482 33.9867 56.9733 32.5405 56.1997 31.234C55.4261 29.9274 54.4027 28.786 53.188 27.875ZM53.188 18.625C53.188 20.4649 52.4571 22.2295 51.156 23.5306C49.855 24.8316 48.0904 25.5625 46.2505 25.5625H39.313V11.6875H46.2505C48.0904 11.6875 49.855 12.4184 51.156 13.7194C52.4571 15.0205 53.188 16.7851 53.188 18.625ZM18.5005 18.625C18.5005 16.7851 19.2314 15.0205 20.5324 13.7194C21.8335 12.4184 23.598 11.6875 25.438 11.6875H34.688V25.5625H25.438C23.598 25.5625 21.8335 24.8316 20.5324 23.5306C19.2314 22.2295 18.5005 20.4649 18.5005 18.625ZM25.438 44.0625C23.598 44.0625 21.8335 43.3316 20.5324 42.0306C19.2314 40.7295 18.5005 38.9649 18.5005 37.125C18.5005 35.2851 19.2314 33.5205 20.5324 32.2194C21.8335 30.9184 23.598 30.1875 25.438 30.1875H34.688V44.0625H25.438ZM34.688 56.7812C34.688 58.382 34.2133 59.9469 33.3239 61.2779C32.4346 62.6089 31.1705 63.6463 29.6916 64.2589C28.2126 64.8715 26.5852 65.0318 25.0152 64.7195C23.4452 64.4072 22.003 63.6363 20.8711 62.5044C19.7392 61.3725 18.9683 59.9303 18.656 58.3603C18.3437 56.7902 18.504 55.1628 19.1166 53.6839C19.7292 52.205 20.7666 50.9409 22.0976 50.0515C23.4286 49.1622 24.9934 48.6875 26.5942 48.6875H34.688V56.7812ZM46.2505 44.0625C44.8784 44.0625 43.5371 43.6556 42.3962 42.8933C41.2553 42.131 40.3661 41.0475 39.8411 39.7799C39.316 38.5122 39.1786 37.1173 39.4463 35.7716C39.714 34.4258 40.3747 33.1897 41.3449 32.2194C42.3152 31.2492 43.5513 30.5885 44.897 30.3208C46.2428 30.0531 47.6377 30.1905 48.9053 30.7156C50.173 31.2407 51.2565 32.1299 52.0188 33.2707C52.7811 34.4116 53.188 35.7529 53.188 37.125C53.188 38.9649 52.4571 40.7295 51.156 42.0306C49.855 43.3316 48.0904 44.0625 46.2505 44.0625Z" fill="#1065DC"/>
</svg>
