<svg width="74" height="75" viewBox="0 0 74 75" fill="none" xmlns="http://www.w3.org/2000/svg">
<path d="M69.375 37.1252H62.9838L69.2045 21.8049C69.332 21.5212 69.4011 21.2146 69.4074 20.9037C69.4138 20.5927 69.3573 20.2836 69.2414 19.9949C69.1255 19.7062 68.9526 19.4439 68.733 19.2237C68.5133 19.0034 68.2515 18.8297 67.9632 18.713C67.6749 18.5962 67.366 18.5389 67.0549 18.5443C66.7439 18.5497 66.4372 18.6179 66.1532 18.7446C65.8691 18.8713 65.6135 19.0541 65.4017 19.2819C65.1899 19.5097 65.0263 19.7779 64.9205 20.0705L57.983 37.1252H46.0708L39.1333 20.0705C38.96 19.6446 38.6636 19.28 38.2821 19.0233C37.9005 18.7667 37.4512 18.6296 36.9913 18.6296C36.5315 18.6296 36.0821 18.7667 35.7006 19.0233C35.319 19.28 35.0227 19.6446 34.8494 20.0705L27.9119 37.1252H16.0083L9.07078 20.0705C8.82547 19.525 8.37832 19.0957 7.82324 18.8729C7.26816 18.65 6.64833 18.6509 6.0939 18.8754C5.53948 19.0999 5.09359 19.5304 4.84988 20.0767C4.60616 20.6229 4.58358 21.2423 4.78687 21.8049L11.0075 37.1252H4.625C4.01169 37.1252 3.42349 37.3688 2.98982 37.8025C2.55614 38.2362 2.3125 38.8244 2.3125 39.4377C2.3125 40.051 2.55614 40.6392 2.98982 41.0729C3.42349 41.5065 4.01169 41.7502 4.625 41.7502H12.8951L19.8326 58.8049C20.0059 59.2308 20.3022 59.5953 20.6838 59.852C21.0653 60.1087 21.5147 60.2457 21.9745 60.2457C22.4344 60.2457 22.8837 60.1087 23.2653 59.852C23.6468 59.5953 23.9432 59.2308 24.1165 58.8049L31.054 41.7502H42.9749L49.9124 58.8049C50.0857 59.2308 50.3821 59.5953 50.7636 59.852C51.1452 60.1087 51.5945 60.2457 52.0544 60.2457C52.5142 60.2457 52.9636 60.1087 53.3451 59.852C53.7267 59.5953 54.023 59.2308 54.1963 58.8049L61.1338 41.7502H69.375C69.9883 41.7502 70.5765 41.5065 71.0102 41.0729C71.4439 40.6392 71.6875 40.051 71.6875 39.4377C71.6875 38.8244 71.4439 38.2362 71.0102 37.8025C70.5765 37.3688 69.9883 37.1252 69.375 37.1252ZM21.9688 51.7951L17.8872 41.7502H26.0503L21.9688 51.7951ZM32.9184 37.1252L37 27.0831L41.0816 37.1252H32.9184ZM52.0312 51.7951L47.9497 41.7502H56.1128L52.0312 51.7951Z" fill="#1065DC"/>
</svg>
