<svg width="74" height="75" viewBox="0 0 74 75" fill="none" xmlns="http://www.w3.org/2000/svg">
<path d="M48.5625 44.0625C48.5625 49.1645 43.3767 53.3125 37 53.3125C30.6233 53.3125 25.4375 49.1645 25.4375 44.0625C25.4375 43.4492 25.6811 42.861 26.1148 42.4273C26.5485 41.9936 27.1367 41.75 27.75 41.75C28.3633 41.75 28.9515 41.9936 29.3852 42.4273C29.8189 42.861 30.0625 43.4492 30.0625 44.0625C30.0625 46.5687 33.2422 48.6875 37 48.6875C40.7578 48.6875 43.9375 46.5687 43.9375 44.0625C43.9375 41.3222 41.4487 40.3047 36.1675 38.7842C31.6148 37.4719 25.952 35.8387 25.952 30.1875C25.952 24.915 30.7013 20.9375 37 20.9375C41.5441 20.9375 45.4348 23.0477 47.1519 26.4297C47.3 26.7016 47.3921 27.0004 47.4226 27.3086C47.453 27.6167 47.4213 27.9278 47.3293 28.2234C47.2373 28.5191 47.0869 28.7932 46.8869 29.0296C46.687 29.266 46.4416 29.4599 46.1653 29.5996C45.889 29.7394 45.5875 29.8223 45.2786 29.8434C44.9697 29.8644 44.6597 29.8232 44.367 29.7222C44.0743 29.6212 43.8049 29.4625 43.5747 29.2554C43.3445 29.0483 43.1582 28.7971 43.027 28.5167C42.0991 26.7014 39.7895 25.5625 37 25.5625C33.3376 25.5625 30.577 27.5513 30.577 30.1875C30.577 32.2109 33.1786 33.107 37.448 34.3384C42.1395 35.6797 48.5625 37.5441 48.5625 44.0625ZM64.75 14V60.25C64.75 61.4766 64.2627 62.653 63.3954 63.5204C62.528 64.3877 61.3516 64.875 60.125 64.875H13.875C12.6484 64.875 11.472 64.3877 10.6046 63.5204C9.73728 62.653 9.25 61.4766 9.25 60.25V14C9.25 12.7734 9.73728 11.597 10.6046 10.7296C11.472 9.86228 12.6484 9.375 13.875 9.375H60.125C61.3516 9.375 62.528 9.86228 63.3954 10.7296C64.2627 11.597 64.75 12.7734 64.75 14ZM60.125 60.25V14H13.875V60.25H60.125Z" fill="#1065DC"/>
</svg>
