<svg width="144" height="52" viewBox="0 0 144 52" fill="none" xmlns="http://www.w3.org/2000/svg">
<path d="M6.52148 39V13.6875H18.9492C22.1719 13.6875 24.5039 14.2266 25.9453 15.3047C27.3867 16.3828 28.1074 17.9414 28.1074 19.9805C28.1074 21.3516 27.8438 22.4297 27.3164 23.2148C26.7891 23.9883 26.1387 24.5566 25.3652 24.9199C24.5918 25.2832 23.8418 25.5293 23.1152 25.6582L23.168 25.5879C24.9844 25.8691 26.3789 26.5371 27.3516 27.5918C28.3242 28.6348 28.8105 30.0762 28.8105 31.916C28.8105 33.7207 28.377 35.1387 27.5098 36.1699C26.6543 37.2012 25.5176 37.9336 24.0996 38.3672C22.6934 38.7891 21.1641 39 19.5117 39H6.52148ZM13.7285 33.5156H17.7891C18.8086 33.5156 19.5879 33.4043 20.127 33.1816C20.666 32.959 21.0352 32.6484 21.2344 32.25C21.4336 31.8516 21.5332 31.3945 21.5332 30.8789C21.5332 30.4336 21.4453 30.0117 21.2695 29.6133C21.0938 29.2148 20.7363 28.8926 20.1973 28.6465C19.6699 28.3887 18.8613 28.2598 17.7715 28.2598H13.7285V33.5156ZM13.7285 23.1621H18.3691C19.3066 23.1621 19.9746 23.0039 20.373 22.6875C20.7832 22.3594 20.9883 21.8555 20.9883 21.1758C20.9883 20.5664 20.8066 20.0801 20.4434 19.7168C20.0918 19.3535 19.4004 19.1719 18.3691 19.1719H13.7285V23.1621ZM32.1504 39V20.0156H39.1816V39H32.1504ZM35.666 18.4688C34.3301 18.4688 33.2871 18.0938 32.5371 17.3438C31.7871 16.5938 31.4121 15.5508 31.4121 14.2148C31.4121 12.8789 31.7871 11.8359 32.5371 11.0859C33.2871 10.3359 34.3301 9.96094 35.666 9.96094C37.002 9.96094 38.0449 10.3359 38.7949 11.0859C39.5449 11.8359 39.9199 12.8789 39.9199 14.2148C39.9199 15.5508 39.5449 16.5938 38.7949 17.3438C38.0449 18.0938 37.002 18.4688 35.666 18.4688ZM42.6094 39V34.3242L51.4688 25.8516H43.1543V20.0156H60.5215V24.7617L51.6973 33.1289H60.5566V39H42.6094ZM64.2129 39V13.6875H83.0039V19.8398H71.4199V23.4434H81.3164V29.5957H71.4199V39H64.2129ZM91.4062 39C89.4727 39 88.0547 38.584 87.1523 37.752C86.25 36.9199 85.7988 35.6543 85.7988 33.9551V12.6328H92.8301V33.0938C92.8301 33.4922 92.8828 33.7559 92.9883 33.8848C93.1055 34.0137 93.3457 34.0781 93.709 34.0781H94.8691V39H91.4062ZM107.051 39.4922C105.152 39.4922 103.395 39.0879 101.777 38.2793C100.172 37.459 98.877 36.2988 97.8926 34.7988C96.9082 33.2988 96.416 31.5176 96.416 29.4551C96.416 27.4277 96.8906 25.6758 97.8398 24.1992C98.8008 22.7109 100.084 21.5625 101.689 20.7539C103.307 19.9336 105.105 19.5234 107.086 19.5234C108.164 19.5234 109.26 19.6816 110.373 19.998C111.498 20.3145 112.535 20.8828 113.484 21.7031C114.434 22.5117 115.195 23.6543 115.77 25.1309C116.355 26.6074 116.648 28.5059 116.648 30.8262H100.934V27.3809H110.338L110.004 28.1719C109.887 27.2227 109.682 26.4551 109.389 25.8691C109.107 25.2715 108.75 24.8379 108.316 24.5684C107.895 24.2871 107.414 24.1465 106.875 24.1465C106.09 24.1465 105.463 24.3926 104.994 24.8848C104.525 25.3652 104.186 26.0098 103.975 26.8184C103.764 27.627 103.658 28.5176 103.658 29.4902C103.658 30.9785 103.91 32.1914 104.414 33.1289C104.918 34.0547 105.773 34.5176 106.98 34.5176C107.684 34.5176 108.305 34.3359 108.844 33.9727C109.383 33.5977 109.816 32.9883 110.145 32.1445L116.332 33.5332C115.887 34.998 115.16 36.1699 114.152 37.0488C113.145 37.916 112.008 38.543 110.742 38.9297C109.488 39.3047 108.258 39.4922 107.051 39.4922ZM116.701 39L123.855 29.1738L117.123 20.0156H124.928L128.443 25.5879L131.555 20.0156H139.359L132.469 29.8418L139.359 39H131.555L127.951 33.1816L124.506 39H116.701Z" fill="#1065DC"/>
</svg>
