<svg width="74" height="75" viewBox="0 0 74 75" fill="none" xmlns="http://www.w3.org/2000/svg">
<path d="M37 7.0625C31.0542 7.0625 25.2419 8.82563 20.2982 12.1289C15.3544 15.4323 11.5012 20.1274 9.22589 25.6206C6.95053 31.1138 6.35519 37.1583 7.51516 42.9899C8.67512 48.8215 11.5383 54.1781 15.7426 58.3824C19.9469 62.5867 25.3036 65.4499 31.1351 66.6099C36.9667 67.7698 43.0112 67.1745 48.5044 64.8991C53.9976 62.6238 58.6928 58.7706 61.9961 53.8268C65.2994 48.8831 67.0625 43.0708 67.0625 37.125C67.0541 29.1545 63.8841 21.5129 58.2481 15.8769C52.6121 10.2409 44.9705 7.07092 37 7.0625ZM57.7749 22.4609L39.3125 33.1186V11.7945C42.9784 12.1305 46.5277 13.2583 49.7152 15.0999C52.9028 16.9414 55.6527 19.4529 57.7749 22.4609ZM34.6875 11.7945V35.7866L13.9068 47.7827C12.2009 44.0852 11.4076 40.0321 11.5936 35.9642C11.7796 31.8963 12.9395 27.9326 14.9758 24.4061C17.012 20.8797 19.8652 17.8937 23.2953 15.699C26.7254 13.5044 30.6323 12.1654 34.6875 11.7945ZM37 62.5625C32.9277 62.5608 28.9152 61.5815 25.3001 59.7067C21.6849 57.832 18.5727 55.1167 16.2251 51.7891L60.0932 26.4644C61.8821 30.34 62.667 34.6035 62.3755 38.8621C62.084 43.1207 60.7256 47.2374 58.4253 50.8331C56.1249 54.4289 52.9568 57.3879 49.2126 59.4377C45.4684 61.4875 41.2686 62.5621 37 62.5625Z" fill="#1065DC"/>
</svg>
