<svg width="74" height="75" viewBox="0 0 74 75" fill="none" xmlns="http://www.w3.org/2000/svg">
<path d="M43.9375 27.875H30.0625C29.4492 27.875 28.861 28.1186 28.4273 28.5523C27.9936 28.986 27.75 29.5742 27.75 30.1875V44.0625C27.75 44.6758 27.9936 45.264 28.4273 45.6977C28.861 46.1314 29.4492 46.375 30.0625 46.375H43.9375C44.5508 46.375 45.139 46.1314 45.5727 45.6977C46.0064 45.264 46.25 44.6758 46.25 44.0625V30.1875C46.25 29.5742 46.0064 28.986 45.5727 28.5523C45.139 28.1186 44.5508 27.875 43.9375 27.875ZM41.625 41.75H32.375V32.5H41.625V41.75ZM67.0625 41.75H62.4375V32.5H67.0625C67.6758 32.5 68.264 32.2564 68.6977 31.8227C69.1314 31.389 69.375 30.8008 69.375 30.1875C69.375 29.5742 69.1314 28.986 68.6977 28.5523C68.264 28.1186 67.6758 27.875 67.0625 27.875H62.4375V16.3125C62.4375 15.0859 61.9502 13.9095 61.0829 13.0421C60.2155 12.1748 59.0391 11.6875 57.8125 11.6875H46.25V7.0625C46.25 6.44919 46.0064 5.86099 45.5727 5.42732C45.139 4.99364 44.5508 4.75 43.9375 4.75C43.3242 4.75 42.736 4.99364 42.3023 5.42732C41.8686 5.86099 41.625 6.44919 41.625 7.0625V11.6875H32.375V7.0625C32.375 6.44919 32.1314 5.86099 31.6977 5.42732C31.264 4.99364 30.6758 4.75 30.0625 4.75C29.4492 4.75 28.861 4.99364 28.4273 5.42732C27.9936 5.86099 27.75 6.44919 27.75 7.0625V11.6875H16.1875C14.9609 11.6875 13.7845 12.1748 12.9171 13.0421C12.0498 13.9095 11.5625 15.0859 11.5625 16.3125V27.875H6.9375C6.32419 27.875 5.73599 28.1186 5.30232 28.5523C4.86864 28.986 4.625 29.5742 4.625 30.1875C4.625 30.8008 4.86864 31.389 5.30232 31.8227C5.73599 32.2564 6.32419 32.5 6.9375 32.5H11.5625V41.75H6.9375C6.32419 41.75 5.73599 41.9936 5.30232 42.4273C4.86864 42.861 4.625 43.4492 4.625 44.0625C4.625 44.6758 4.86864 45.264 5.30232 45.6977C5.73599 46.1314 6.32419 46.375 6.9375 46.375H11.5625V57.9375C11.5625 59.1641 12.0498 60.3405 12.9171 61.2079C13.7845 62.0752 14.9609 62.5625 16.1875 62.5625H27.75V67.1875C27.75 67.8008 27.9936 68.389 28.4273 68.8227C28.861 69.2564 29.4492 69.5 30.0625 69.5C30.6758 69.5 31.264 69.2564 31.6977 68.8227C32.1314 68.389 32.375 67.8008 32.375 67.1875V62.5625H41.625V67.1875C41.625 67.8008 41.8686 68.389 42.3023 68.8227C42.736 69.2564 43.3242 69.5 43.9375 69.5C44.5508 69.5 45.139 69.2564 45.5727 68.8227C46.0064 68.389 46.25 67.8008 46.25 67.1875V62.5625H57.8125C59.0391 62.5625 60.2155 62.0752 61.0829 61.2079C61.9502 60.3405 62.4375 59.1641 62.4375 57.9375V46.375H67.0625C67.6758 46.375 68.264 46.1314 68.6977 45.6977C69.1314 45.264 69.375 44.6758 69.375 44.0625C69.375 43.4492 69.1314 42.861 68.6977 42.4273C68.264 41.9936 67.6758 41.75 67.0625 41.75ZM57.8125 57.9375H16.1875V16.3125H57.8125V44.0249C57.8125 44.0249 57.8125 44.0509 57.8125 44.0625C57.8125 44.0741 57.8125 44.0885 57.8125 44.1001V57.9375Z" fill="white"/>
</svg>
