<svg width="74" height="75" viewBox="0 0 74 75" fill="none" xmlns="http://www.w3.org/2000/svg">
<path d="M41.625 48.6875L41.625 62.5625C41.625 63.7891 42.1123 64.9655 42.9796 65.8329C43.847 66.7002 45.0234 67.1875 46.25 67.1875L60.125 67.1875C61.3516 67.1875 62.528 66.7002 63.3954 65.8329C64.2627 64.9655 64.75 63.7891 64.75 62.5625L64.75 48.6875C64.75 47.4609 64.2627 46.2845 63.3954 45.4171C62.528 44.5498 61.3516 44.0625 60.125 44.0625L55.5 44.0625L55.5 41.75C55.5 39.2967 54.5254 36.944 52.7907 35.2093C51.056 33.4745 48.7033 32.5 46.25 32.5L39.3125 32.5L39.3125 23.25L41.625 23.25C42.8516 23.25 44.028 22.7627 44.8954 21.8954C45.7627 21.028 46.25 19.8516 46.25 18.625L46.25 9.375C46.25 8.14837 45.7627 6.97199 44.8954 6.10463C44.028 5.23727 42.8516 4.75 41.625 4.75L32.375 4.75C31.1484 4.75 29.972 5.23727 29.1046 6.10463C28.2373 6.97198 27.75 8.14837 27.75 9.375L27.75 18.625C27.75 19.8516 28.2373 21.028 29.1046 21.8954C29.972 22.7627 31.1484 23.25 32.375 23.25L34.6875 23.25L34.6875 32.5L27.75 32.5C25.2967 32.5 22.944 33.4745 21.2093 35.2093C19.4746 36.944 18.5 39.2967 18.5 41.75L18.5 44.0625L13.875 44.0625C12.6484 44.0625 11.472 44.5498 10.6046 45.4171C9.73728 46.2845 9.25 47.4609 9.25 48.6875L9.25 62.5625C9.25 63.7891 9.73728 64.9655 10.6046 65.8329C11.472 66.7002 12.6484 67.1875 13.875 67.1875L27.75 67.1875C28.9766 67.1875 30.153 66.7002 31.0204 65.8329C31.8877 64.9655 32.375 63.7891 32.375 62.5625L32.375 48.6875C32.375 47.4609 31.8877 46.2845 31.0204 45.4171C30.153 44.5498 28.9766 44.0625 27.75 44.0625L23.125 44.0625L23.125 41.75C23.125 40.5234 23.6123 39.347 24.4796 38.4796C25.347 37.6123 26.5234 37.125 27.75 37.125L46.25 37.125C47.4766 37.125 48.653 37.6123 49.5204 38.4796C50.3877 39.347 50.875 40.5234 50.875 41.75L50.875 44.0625L46.25 44.0625C45.0234 44.0625 43.847 44.5498 42.9796 45.4171C42.1123 46.2845 41.625 47.4609 41.625 48.6875ZM32.375 18.625L32.375 9.375L41.625 9.375L41.625 18.625L32.375 18.625ZM27.75 48.6875L27.75 62.5625L13.875 62.5625L13.875 48.6875L27.75 48.6875ZM60.125 48.6875L60.125 62.5625L46.25 62.5625L46.25 48.6875L60.125 48.6875Z" fill="#1065DC"/>
</svg>
